<svg width="46" height="40" viewBox="0 0 46 40" fill="none" xmlns="http://www.w3.org/2000/svg">
    <path d="M23.7071 26.1371C17.1094 21.8472 15.2455 13.0602 19.5355 6.46258C21.1923 3.88862 23.5591 2.0543 26.1923 0.989209C18.0562 -1.2889 9.06209 1.8472 4.21002 9.30282C-1.76631 18.504 0.837236 30.8117 10.0384 36.788C19.2396 42.7644 31.5473 40.1608 37.5236 30.9596C38.6183 29.2732 39.4467 27.4389 39.9792 25.6046C35.3343 29.0661 28.855 29.4803 23.7071 26.1371Z" fill="#2C3D94"/>
    <path d="M26.2218 1.01795C28.1153 1.5505 29.9792 2.3789 31.6952 3.50316C39.1804 8.38482 42.3165 17.4381 39.9792 25.6038C41.281 24.6274 42.4348 23.4144 43.3816 21.9647C47.6715 15.3671 45.778 6.58008 39.21 2.29014C35.1863 -0.31341 30.3638 -0.638853 26.2218 1.01795Z" fill="#F6CD4C"/>
</svg>
